<?xml version="1.0" encoding="UTF-8"?>
<svg width="269px" height="422px" viewBox="0 0 269 422" version="1.1" xmlns="http://www.w3.org/2000/svg" xmlns:xlink="http://www.w3.org/1999/xlink">
    <!-- Generator: Sketch 46.2 (44496) - http://www.bohemiancoding.com/sketch -->
    <title>logoMarie</title>
    <desc>Created with Sketch.</desc>
    <defs></defs>
    <g id="Page-1" stroke="none" stroke-width="1" fill="none" fill-rule="evenodd">
        <g id="Artboard-Copy" transform="translate(-484.000000, -89.000000)">
            <g id="logoMarie" transform="translate(484.000000, 89.000000)">
                <g id="body">
                    <path d="M106,38 C124.899803,12.6666667 148.233136,3.34114971e-15 176,0 C203.766864,0 230.43353,12.6666667 256,38 L259.313604,97.6448742 L261,110 C229.327915,149.333333 199.327915,169 171,169 C142.672085,169 114.672085,149.333333 87,110 L91,97.6448742 L106,38 Z" id="Path" fill="#C6C6FF" style="mix-blend-mode: darken;"></path>
                    <path d="M259,97 C275.567358,185.090512 269.900692,252.423845 242,299 C214.099308,345.576155 133.432642,366.909488 0,363 C52.5346584,330.76371 88.2013251,295.76371 107,258 C125.798675,220.23629 133.465342,175.23629 130,123 L171,150 L259,97 Z" id="Path-3" fill="#7DE9D8" style="mix-blend-mode: darken;" opacity="0.849999964"></path>
                    <path d="M91,97 L73,155 L0,363 L6,422 L73,363 C107,312.333333 129.333333,272.666667 140,244 C146.417007,226.754293 153.750341,193.42096 162,144 L91,97 Z" id="Path-2-Copy" fill="#8800FF" style="mix-blend-mode: darken;" opacity="0.849999964"></path>
                    <polygon id="Path-4" fill="#FFFFFF" points="196 79 198 64 210 58 226 64 221 79 211 84"></polygon>
                    <polygon id="Path-4-Copy" fill="#FFFFFF" transform="translate(139.000000, 71.000000) scale(-1, 1) translate(-139.000000, -71.000000) " points="124 79 126 64 138 58 154 64 149 79 139 84"></polygon>
                </g>
            </g>
        </g>
    </g>
</svg>